<mxfile host="app.diagrams.net" agent="Mozilla/5.0 (Windows NT 10.0; Win64; x64) AppleWebKit/537.36 (KHTML, like Gecko) Chrome/132.0.0.0 Safari/537.36 OPR/117.0.0.0" version="26.1.0">
  <diagram id="C5RBs43oDa-KdzZeNtuy" name="Page-1">
    <mxGraphModel dx="1905" dy="949" grid="1" gridSize="10" guides="1" tooltips="1" connect="1" arrows="1" fold="1" page="1" pageScale="1" pageWidth="827" pageHeight="1169" math="0" shadow="0">
      <root>
        <mxCell id="WIyWlLk6GJQsqaUBKTNV-0" />
        <mxCell id="WIyWlLk6GJQsqaUBKTNV-1" parent="WIyWlLk6GJQsqaUBKTNV-0" />
        <mxCell id="LHLOS1tPAjdGcjN-S2N2-0" value="" style="whiteSpace=wrap;html=1;aspect=fixed;" vertex="1" parent="WIyWlLk6GJQsqaUBKTNV-1">
          <mxGeometry x="153" y="380" width="1110" height="1110" as="geometry" />
        </mxCell>
        <mxCell id="LHLOS1tPAjdGcjN-S2N2-1" value="&lt;span style=&quot;font-weight: 400; text-align: left;&quot;&gt;Medication&lt;/span&gt;" style="swimlane;fontStyle=1;align=center;verticalAlign=top;childLayout=stackLayout;horizontal=1;startSize=26;horizontalStack=0;resizeParent=1;resizeParentMax=0;resizeLast=0;collapsible=1;marginBottom=0;whiteSpace=wrap;html=1;fillColor=#d5e8d4;strokeColor=#82b366;rounded=1;" vertex="1" parent="WIyWlLk6GJQsqaUBKTNV-1">
          <mxGeometry x="500" y="475" width="180" height="118" as="geometry">
            <mxRectangle x="100" y="110" width="70" height="30" as="alternateBounds" />
          </mxGeometry>
        </mxCell>
        <mxCell id="LHLOS1tPAjdGcjN-S2N2-2" value="&amp;nbsp; - id: Long&lt;br style=&quot;padding: 0px; margin: 0px;&quot;&gt;&amp;nbsp; - name: String&lt;br style=&quot;padding: 0px; margin: 0px;&quot;&gt;&amp;nbsp; - dosage: String&lt;br style=&quot;padding: 0px; margin: 0px;&quot;&gt;&amp;nbsp; - duration: String&lt;div&gt;&amp;nbsp; - extraNotes: String&lt;/div&gt;" style="text;strokeColor=none;fillColor=none;align=left;verticalAlign=top;spacingLeft=4;spacingRight=4;overflow=hidden;rotatable=0;points=[[0,0.5],[1,0.5]];portConstraint=eastwest;whiteSpace=wrap;html=1;rounded=1;" vertex="1" parent="LHLOS1tPAjdGcjN-S2N2-1">
          <mxGeometry y="26" width="180" height="84" as="geometry" />
        </mxCell>
        <mxCell id="LHLOS1tPAjdGcjN-S2N2-3" value="" style="line;strokeWidth=1;fillColor=none;align=left;verticalAlign=middle;spacingTop=-1;spacingLeft=3;spacingRight=3;rotatable=0;labelPosition=right;points=[];portConstraint=eastwest;strokeColor=inherit;rounded=1;" vertex="1" parent="LHLOS1tPAjdGcjN-S2N2-1">
          <mxGeometry y="110" width="180" height="8" as="geometry" />
        </mxCell>
        <mxCell id="LHLOS1tPAjdGcjN-S2N2-4" value="&lt;span style=&quot;font-family: monospace; font-size: medium; text-align: left;&quot;&gt;PrescriptionServiceImpl&lt;/span&gt;" style="swimlane;fontStyle=1;align=center;verticalAlign=top;childLayout=stackLayout;horizontal=1;startSize=26;horizontalStack=0;resizeParent=1;resizeParentMax=0;resizeLast=0;collapsible=1;marginBottom=0;whiteSpace=wrap;html=1;rounded=1;fillColor=#d5e8d4;strokeColor=#82b366;" vertex="1" parent="WIyWlLk6GJQsqaUBKTNV-1">
          <mxGeometry x="476" y="1011" width="310" height="100" as="geometry" />
        </mxCell>
        <mxCell id="LHLOS1tPAjdGcjN-S2N2-5" value="" style="line;strokeWidth=1;fillColor=none;align=left;verticalAlign=middle;spacingTop=-1;spacingLeft=3;spacingRight=3;rotatable=0;labelPosition=right;points=[];portConstraint=eastwest;strokeColor=inherit;rounded=1;" vertex="1" parent="LHLOS1tPAjdGcjN-S2N2-4">
          <mxGeometry y="26" width="310" height="8" as="geometry" />
        </mxCell>
        <mxCell id="LHLOS1tPAjdGcjN-S2N2-6" value="+ createPrescription(PrescriptionDTO): Prescription&lt;br&gt;+ getPrescriptionsByPatient(Long patientId): List&lt;br&gt;+ validatePrescription(Long prescriptionId)" style="text;strokeColor=none;fillColor=none;align=left;verticalAlign=top;spacingLeft=4;spacingRight=4;overflow=hidden;rotatable=0;points=[[0,0.5],[1,0.5]];portConstraint=eastwest;whiteSpace=wrap;html=1;rounded=1;" vertex="1" parent="LHLOS1tPAjdGcjN-S2N2-4">
          <mxGeometry y="34" width="310" height="66" as="geometry" />
        </mxCell>
        <mxCell id="LHLOS1tPAjdGcjN-S2N2-10" value="&lt;span style=&quot;font-family: monospace; font-size: medium; text-align: left;&quot;&gt;PrescriptionController&lt;/span&gt;" style="swimlane;fontStyle=1;align=center;verticalAlign=top;childLayout=stackLayout;horizontal=1;startSize=26;horizontalStack=0;resizeParent=1;resizeParentMax=0;resizeLast=0;collapsible=1;marginBottom=0;whiteSpace=wrap;html=1;rounded=1;fillColor=#d5e8d4;strokeColor=#82b366;" vertex="1" parent="WIyWlLk6GJQsqaUBKTNV-1">
          <mxGeometry x="786" y="620" width="320" height="150" as="geometry" />
        </mxCell>
        <mxCell id="LHLOS1tPAjdGcjN-S2N2-11" value="" style="line;strokeWidth=1;fillColor=none;align=left;verticalAlign=middle;spacingTop=-1;spacingLeft=3;spacingRight=3;rotatable=0;labelPosition=right;points=[];portConstraint=eastwest;strokeColor=inherit;rounded=1;" vertex="1" parent="LHLOS1tPAjdGcjN-S2N2-10">
          <mxGeometry y="26" width="320" height="8" as="geometry" />
        </mxCell>
        <mxCell id="LHLOS1tPAjdGcjN-S2N2-12" value="&lt;div&gt;&lt;div&gt;&amp;nbsp;+ createPrescription(PrescriptionDTO): ResponseEntity&lt;/div&gt;&lt;div&gt;&amp;nbsp; + getPrescriptionsByPatient(Long patientId): ResponseEntity&amp;lt;List&amp;lt;PrescriptionDTO&amp;gt;&amp;gt;&lt;/div&gt;&lt;div&gt;&amp;nbsp; + sendToPatient(Long id): ResponseEntity&lt;/div&gt;&lt;div&gt;&amp;nbsp; + reviewPrescription(Long id, boolean isApproved): ResponseEntity&lt;/div&gt;&lt;div&gt;}&lt;/div&gt;&lt;/div&gt;" style="text;strokeColor=none;fillColor=none;align=left;verticalAlign=top;spacingLeft=4;spacingRight=4;overflow=hidden;rotatable=0;points=[[0,0.5],[1,0.5]];portConstraint=eastwest;whiteSpace=wrap;html=1;rounded=1;" vertex="1" parent="LHLOS1tPAjdGcjN-S2N2-10">
          <mxGeometry y="34" width="320" height="116" as="geometry" />
        </mxCell>
        <mxCell id="LHLOS1tPAjdGcjN-S2N2-13" value="UserDTO" style="swimlane;fontStyle=1;align=center;verticalAlign=top;childLayout=stackLayout;horizontal=1;startSize=26;horizontalStack=0;resizeParent=1;resizeParentMax=0;resizeLast=0;collapsible=1;marginBottom=0;whiteSpace=wrap;html=1;fillColor=#d5e8d4;strokeColor=#82b366;rounded=1;" vertex="1" parent="WIyWlLk6GJQsqaUBKTNV-1">
          <mxGeometry x="1030" y="1183.5" width="160" height="108" as="geometry" />
        </mxCell>
        <mxCell id="LHLOS1tPAjdGcjN-S2N2-14" value="&lt;div&gt;&lt;span style=&quot;background-color: transparent; color: light-dark(rgb(0, 0, 0), rgb(255, 255, 255));&quot;&gt;&amp;nbsp; - id: Long&lt;/span&gt;&lt;/div&gt;&lt;div&gt;&amp;nbsp; - name: String&lt;/div&gt;&lt;div&gt;&amp;nbsp; - email: String&lt;/div&gt;&lt;div&gt;&amp;nbsp; - role: Role&lt;/div&gt;&lt;div&gt;&lt;br&gt;&lt;/div&gt;" style="text;align=left;verticalAlign=top;spacingLeft=4;spacingRight=4;overflow=hidden;rotatable=0;points=[[0,0.5],[1,0.5]];portConstraint=eastwest;whiteSpace=wrap;html=1;rounded=1;" vertex="1" parent="LHLOS1tPAjdGcjN-S2N2-13">
          <mxGeometry y="26" width="160" height="74" as="geometry" />
        </mxCell>
        <mxCell id="LHLOS1tPAjdGcjN-S2N2-15" value="" style="line;strokeWidth=1;fillColor=none;align=left;verticalAlign=middle;spacingTop=-1;spacingLeft=3;spacingRight=3;rotatable=0;labelPosition=right;points=[];portConstraint=eastwest;strokeColor=inherit;rounded=1;" vertex="1" parent="LHLOS1tPAjdGcjN-S2N2-13">
          <mxGeometry y="100" width="160" height="8" as="geometry" />
        </mxCell>
        <mxCell id="LHLOS1tPAjdGcjN-S2N2-17" value="«interface»&lt;br&gt;&lt;span style=&quot;font-family: monospace; font-size: medium; font-weight: 700; text-align: left;&quot;&gt;PrescriptionService&lt;/span&gt;" style="html=1;whiteSpace=wrap;fillColor=#fff2cc;strokeColor=#d6b656;rounded=1;" vertex="1" parent="WIyWlLk6GJQsqaUBKTNV-1">
          <mxGeometry x="511" y="891" width="190" height="50" as="geometry" />
        </mxCell>
        <mxCell id="LHLOS1tPAjdGcjN-S2N2-18" value="&lt;p style=&quot;margin:0px;margin-top:4px;text-align:center;&quot;&gt;&lt;i&gt;&amp;lt;&amp;lt;Enumeration&amp;gt;&amp;gt;&lt;/i&gt;&lt;br&gt;&lt;b&gt;PrescriptionStatus&lt;/b&gt;&lt;/p&gt;&lt;hr size=&quot;1&quot; style=&quot;border-style:solid;&quot;&gt;&lt;p style=&quot;margin:0px;margin-left:4px;&quot;&gt;&lt;span style=&quot;background-color: transparent; color: light-dark(rgb(0, 0, 0), rgb(255, 255, 255));&quot;&gt;&amp;nbsp;SENT&lt;/span&gt;&lt;/p&gt;&lt;p style=&quot;margin:0px;margin-left:4px;&quot;&gt;&lt;span style=&quot;background-color: transparent; color: light-dark(rgb(0, 0, 0), rgb(255, 255, 255));&quot;&gt;&amp;nbsp;PENDING_REVIEW&lt;/span&gt;&lt;/p&gt;&lt;div&gt;&amp;nbsp; VALIDATED&lt;br style=&quot;padding: 0px; margin: 0px;&quot;&gt;&lt;/div&gt;&lt;div&gt;&lt;span style=&quot;background-color: transparent; color: light-dark(rgb(0, 0, 0), rgb(255, 255, 255));&quot;&gt;&amp;nbsp;&amp;nbsp;&lt;/span&gt;&lt;span style=&quot;background-color: transparent; color: light-dark(rgb(0, 0, 0), rgb(255, 255, 255));&quot;&gt;REJECTED&lt;/span&gt;&lt;/div&gt;&lt;div&gt;&amp;nbsp; RENOVELED&lt;/div&gt;" style="verticalAlign=top;align=left;overflow=fill;html=1;whiteSpace=wrap;fillColor=#dae8fc;strokeColor=#6c8ebf;rounded=1;" vertex="1" parent="WIyWlLk6GJQsqaUBKTNV-1">
          <mxGeometry x="269.75" y="470" width="191" height="123" as="geometry" />
        </mxCell>
        <mxCell id="LHLOS1tPAjdGcjN-S2N2-20" value="&lt;p style=&quot;margin:0px;margin-top:4px;text-align:center;&quot;&gt;&lt;i&gt;&amp;lt;&amp;lt;Interface&amp;gt;&amp;gt;&lt;/i&gt;&lt;br&gt;&lt;b&gt;PrescriptionRepository&lt;/b&gt;&lt;/p&gt;&lt;hr size=&quot;1&quot; style=&quot;border-style:solid;&quot;&gt;&lt;p style=&quot;margin:0px;margin-left:4px;&quot;&gt;+ save(Prescription prescription): Prescription&lt;br&gt;+ findById(Long id): Optional&lt;br&gt;+ findByPatientId(Long patientId): List&lt;br&gt;+ findByDoctorId(Long doctorId): List&lt;/p&gt;" style="verticalAlign=top;align=left;overflow=fill;html=1;whiteSpace=wrap;fillColor=#fff2cc;strokeColor=#d6b656;rounded=1;" vertex="1" parent="WIyWlLk6GJQsqaUBKTNV-1">
          <mxGeometry x="906" y="820" width="280" height="129" as="geometry" />
        </mxCell>
        <mxCell id="LHLOS1tPAjdGcjN-S2N2-21" value="" style="html=1;verticalAlign=bottom;endArrow=block;curved=0;rounded=0;exitX=0.5;exitY=0;exitDx=0;exitDy=0;entryX=0.5;entryY=1;entryDx=0;entryDy=0;" edge="1" parent="WIyWlLk6GJQsqaUBKTNV-1" source="LHLOS1tPAjdGcjN-S2N2-37" target="LHLOS1tPAjdGcjN-S2N2-18">
          <mxGeometry width="80" relative="1" as="geometry">
            <mxPoint x="231" y="791" as="sourcePoint" />
            <mxPoint x="141" y="637" as="targetPoint" />
            <Array as="points" />
          </mxGeometry>
        </mxCell>
        <mxCell id="LHLOS1tPAjdGcjN-S2N2-22" value="" style="endArrow=none;html=1;rounded=0;exitX=0.5;exitY=1;exitDx=0;exitDy=0;entryX=1;entryY=0.5;entryDx=0;entryDy=0;" edge="1" parent="WIyWlLk6GJQsqaUBKTNV-1" source="LHLOS1tPAjdGcjN-S2N2-1" target="LHLOS1tPAjdGcjN-S2N2-38">
          <mxGeometry width="50" height="50" relative="1" as="geometry">
            <mxPoint x="721" y="731" as="sourcePoint" />
            <mxPoint x="561" y="623.0000000000001" as="targetPoint" />
            <Array as="points">
              <mxPoint x="590" y="783" />
            </Array>
          </mxGeometry>
        </mxCell>
        <mxCell id="LHLOS1tPAjdGcjN-S2N2-23" value="0..*" style="edgeLabel;html=1;align=center;verticalAlign=middle;resizable=0;points=[];" vertex="1" connectable="0" parent="LHLOS1tPAjdGcjN-S2N2-22">
          <mxGeometry x="-0.2422" y="1" relative="1" as="geometry">
            <mxPoint x="13" y="-103" as="offset" />
          </mxGeometry>
        </mxCell>
        <mxCell id="LHLOS1tPAjdGcjN-S2N2-24" value="0..*" style="edgeLabel;html=1;align=center;verticalAlign=middle;resizable=0;points=[];" vertex="1" connectable="0" parent="LHLOS1tPAjdGcjN-S2N2-22">
          <mxGeometry x="0.8914" y="3" relative="1" as="geometry">
            <mxPoint x="14" y="-5" as="offset" />
          </mxGeometry>
        </mxCell>
        <mxCell id="LHLOS1tPAjdGcjN-S2N2-26" value="Use" style="endArrow=open;endSize=12;dashed=1;html=1;rounded=0;exitX=-0.012;exitY=0.279;exitDx=0;exitDy=0;entryX=0.431;entryY=1.031;entryDx=0;entryDy=0;entryPerimeter=0;exitPerimeter=0;" edge="1" parent="WIyWlLk6GJQsqaUBKTNV-1" source="LHLOS1tPAjdGcjN-S2N2-6" target="LHLOS1tPAjdGcjN-S2N2-40">
          <mxGeometry width="160" relative="1" as="geometry">
            <mxPoint x="461" y="1031" as="sourcePoint" />
            <mxPoint x="340" y="919" as="targetPoint" />
            <Array as="points">
              <mxPoint x="350" y="1060" />
            </Array>
          </mxGeometry>
        </mxCell>
        <mxCell id="LHLOS1tPAjdGcjN-S2N2-27" value="" style="endArrow=block;endSize=16;endFill=0;html=1;rounded=0;" edge="1" parent="WIyWlLk6GJQsqaUBKTNV-1">
          <mxGeometry width="160" relative="1" as="geometry">
            <mxPoint x="601" y="1010" as="sourcePoint" />
            <mxPoint x="606" y="941" as="targetPoint" />
          </mxGeometry>
        </mxCell>
        <mxCell id="LHLOS1tPAjdGcjN-S2N2-29" value="" style="endArrow=diamondThin;endFill=0;endSize=24;html=1;rounded=0;exitX=0.25;exitY=1;exitDx=0;exitDy=0;entryX=1;entryY=0;entryDx=0;entryDy=0;" edge="1" parent="WIyWlLk6GJQsqaUBKTNV-1" source="LHLOS1tPAjdGcjN-S2N2-20" target="LHLOS1tPAjdGcjN-S2N2-4">
          <mxGeometry width="160" relative="1" as="geometry">
            <mxPoint x="1030" y="971" as="sourcePoint" />
            <mxPoint x="1190" y="971" as="targetPoint" />
          </mxGeometry>
        </mxCell>
        <mxCell id="LHLOS1tPAjdGcjN-S2N2-30" value="" style="endArrow=classic;html=1;rounded=0;exitX=0.341;exitY=1;exitDx=0;exitDy=0;exitPerimeter=0;entryX=0.835;entryY=0.109;entryDx=0;entryDy=0;entryPerimeter=0;" edge="1" parent="WIyWlLk6GJQsqaUBKTNV-1" source="LHLOS1tPAjdGcjN-S2N2-12" target="LHLOS1tPAjdGcjN-S2N2-17">
          <mxGeometry width="50" height="50" relative="1" as="geometry">
            <mxPoint x="676" y="891" as="sourcePoint" />
            <mxPoint x="726" y="841" as="targetPoint" />
          </mxGeometry>
        </mxCell>
        <mxCell id="LHLOS1tPAjdGcjN-S2N2-31" value="" style="verticalLabelPosition=middle;verticalAlign=middle;html=1;shape=trapezoid;perimeter=trapezoidPerimeter;whiteSpace=wrap;size=0.23;arcSize=10;flipV=1;labelPosition=center;align=center;fillColor=#f5f5f5;fontColor=#333333;strokeColor=#666666;" vertex="1" parent="WIyWlLk6GJQsqaUBKTNV-1">
          <mxGeometry x="150.5" y="380" width="429.5" height="50" as="geometry" />
        </mxCell>
        <mxCell id="LHLOS1tPAjdGcjN-S2N2-32" value="&lt;h1 style=&quot;text-align: left; margin-top: 0px;&quot;&gt;&lt;span style=&quot;background-color: transparent; color: light-dark(rgb(0, 0, 0), rgb(255, 255, 255)); font-weight: normal;&quot;&gt;&lt;font style=&quot;font-size: 20px;&quot;&gt;Class diagram : prescription-service&lt;/font&gt;&lt;/span&gt;&lt;/h1&gt;" style="text;html=1;align=center;verticalAlign=middle;whiteSpace=wrap;rounded=0;fontStyle=1" vertex="1" parent="WIyWlLk6GJQsqaUBKTNV-1">
          <mxGeometry x="178" y="360" width="374.5" height="95" as="geometry" />
        </mxCell>
        <mxCell id="LHLOS1tPAjdGcjN-S2N2-33" value="&lt;p style=&quot;margin:0px;margin-top:4px;text-align:center;&quot;&gt;&lt;i&gt;&amp;lt;&amp;lt;Interface&amp;gt;&amp;gt;&lt;/i&gt;&lt;br&gt;&lt;b&gt;NotificationFeignClient&lt;/b&gt;&lt;/p&gt;&lt;hr size=&quot;1&quot; style=&quot;border-style:solid;&quot;&gt;&lt;p style=&quot;margin:0px;margin-left:4px;&quot;&gt;+ sendPrescriptionNotification(Long patientId, String message): void&lt;br&gt;&lt;/p&gt;" style="verticalAlign=top;align=left;overflow=fill;html=1;whiteSpace=wrap;fillColor=#fff2cc;strokeColor=#d6b656;rounded=1;" vertex="1" parent="WIyWlLk6GJQsqaUBKTNV-1">
          <mxGeometry x="260.25" y="1190" width="269" height="95" as="geometry" />
        </mxCell>
        <mxCell id="LHLOS1tPAjdGcjN-S2N2-35" value="&lt;p style=&quot;margin:0px;margin-top:4px;text-align:center;&quot;&gt;&lt;i&gt;&amp;lt;&amp;lt;Interface&amp;gt;&amp;gt;&lt;/i&gt;&lt;br&gt;&lt;b&gt;UserFeignClient&lt;/b&gt;&lt;/p&gt;&lt;hr size=&quot;1&quot; style=&quot;border-style:solid;&quot;&gt;&lt;p style=&quot;margin:0px;margin-left:4px;&quot;&gt;+ getUserById(Long userId): UserDTO&lt;br&gt;&lt;/p&gt;" style="verticalAlign=top;align=left;overflow=fill;html=1;whiteSpace=wrap;fillColor=#fff2cc;strokeColor=#d6b656;rounded=1;" vertex="1" parent="WIyWlLk6GJQsqaUBKTNV-1">
          <mxGeometry x="710" y="1190" width="230" height="90" as="geometry" />
        </mxCell>
        <mxCell id="LHLOS1tPAjdGcjN-S2N2-37" value="&lt;span style=&quot;font-weight: 400; text-align: left;&quot;&gt;&amp;nbsp;Prescription&lt;/span&gt;" style="swimlane;fontStyle=1;align=center;verticalAlign=top;childLayout=stackLayout;horizontal=1;startSize=26;horizontalStack=0;resizeParent=1;resizeParentMax=0;resizeLast=0;collapsible=1;marginBottom=0;whiteSpace=wrap;html=1;fillColor=#d5e8d4;strokeColor=#82b366;gradientColor=none;rounded=1;" vertex="1" parent="WIyWlLk6GJQsqaUBKTNV-1">
          <mxGeometry x="260.25" y="700" width="210" height="188" as="geometry" />
        </mxCell>
        <mxCell id="LHLOS1tPAjdGcjN-S2N2-38" value="&lt;div&gt;&amp;nbsp; - id: Long&lt;/div&gt;&lt;div&gt;&amp;nbsp; - patientId: Long&lt;/div&gt;&lt;div&gt;&amp;nbsp; - doctorId: Long&lt;/div&gt;&lt;div&gt;&amp;nbsp; - createdDate: LocalDateTime&lt;/div&gt;&lt;div&gt;&amp;nbsp; - status: PrescriptionStatus&lt;/div&gt;&lt;div&gt;&amp;nbsp; - medications: List&amp;lt;Medication&amp;gt;&lt;/div&gt;&lt;div&gt;&amp;nbsp; - code: String&lt;/div&gt;" style="text;strokeColor=none;fillColor=none;align=left;verticalAlign=top;spacingLeft=4;spacingRight=4;overflow=hidden;rotatable=0;points=[[0,0.5],[1,0.5]];portConstraint=eastwest;whiteSpace=wrap;html=1;" vertex="1" parent="LHLOS1tPAjdGcjN-S2N2-37">
          <mxGeometry y="26" width="210" height="114" as="geometry" />
        </mxCell>
        <mxCell id="LHLOS1tPAjdGcjN-S2N2-39" value="" style="line;strokeWidth=1;fillColor=none;align=left;verticalAlign=middle;spacingTop=-1;spacingLeft=3;spacingRight=3;rotatable=0;labelPosition=right;points=[];portConstraint=eastwest;strokeColor=inherit;" vertex="1" parent="LHLOS1tPAjdGcjN-S2N2-37">
          <mxGeometry y="140" width="210" height="8" as="geometry" />
        </mxCell>
        <mxCell id="LHLOS1tPAjdGcjN-S2N2-40" value="&amp;nbsp;+ validate()&lt;br style=&quot;padding: 0px; margin: 0px;&quot;&gt;&amp;nbsp;+ expire()" style="text;strokeColor=none;fillColor=none;align=left;verticalAlign=top;spacingLeft=4;spacingRight=4;overflow=hidden;rotatable=0;points=[[0,0.5],[1,0.5]];portConstraint=eastwest;whiteSpace=wrap;html=1;" vertex="1" parent="LHLOS1tPAjdGcjN-S2N2-37">
          <mxGeometry y="148" width="210" height="40" as="geometry" />
        </mxCell>
        <mxCell id="LHLOS1tPAjdGcjN-S2N2-44" value="" style="endArrow=block;dashed=1;endFill=0;endSize=12;html=1;rounded=0;exitX=0.209;exitY=1.02;exitDx=0;exitDy=0;exitPerimeter=0;" edge="1" parent="WIyWlLk6GJQsqaUBKTNV-1" source="LHLOS1tPAjdGcjN-S2N2-6" target="LHLOS1tPAjdGcjN-S2N2-33">
          <mxGeometry width="160" relative="1" as="geometry">
            <mxPoint x="800" y="1130" as="sourcePoint" />
            <mxPoint x="960" y="1130" as="targetPoint" />
          </mxGeometry>
        </mxCell>
        <mxCell id="LHLOS1tPAjdGcjN-S2N2-45" value="" style="endArrow=block;dashed=1;endFill=0;endSize=12;html=1;rounded=0;exitX=0.838;exitY=1.02;exitDx=0;exitDy=0;exitPerimeter=0;entryX=0.558;entryY=0.037;entryDx=0;entryDy=0;entryPerimeter=0;" edge="1" parent="WIyWlLk6GJQsqaUBKTNV-1" source="LHLOS1tPAjdGcjN-S2N2-6" target="LHLOS1tPAjdGcjN-S2N2-35">
          <mxGeometry width="160" relative="1" as="geometry">
            <mxPoint x="800" y="1130" as="sourcePoint" />
            <mxPoint x="960" y="1130" as="targetPoint" />
          </mxGeometry>
        </mxCell>
        <mxCell id="LHLOS1tPAjdGcjN-S2N2-46" value="" style="endArrow=block;dashed=1;endFill=0;endSize=12;html=1;rounded=0;exitX=0.996;exitY=0.601;exitDx=0;exitDy=0;exitPerimeter=0;" edge="1" parent="WIyWlLk6GJQsqaUBKTNV-1" source="LHLOS1tPAjdGcjN-S2N2-35" target="LHLOS1tPAjdGcjN-S2N2-14">
          <mxGeometry width="160" relative="1" as="geometry">
            <mxPoint x="800" y="1130" as="sourcePoint" />
            <mxPoint x="960" y="1130" as="targetPoint" />
          </mxGeometry>
        </mxCell>
      </root>
    </mxGraphModel>
  </diagram>
</mxfile>
